<svg width="20" height="20" viewBox="0 0 20 20" fill="none" xmlns="http://www.w3.org/2000/svg">
    <g clip-path="url(#clip0_588_1153)">
        <path d="M10.0023 19.6043C15.3043 19.6043 19.6023 15.3062 19.6023 10.0043C19.6023 4.70236 15.3043 0.404297 10.0023 0.404297C4.70041 0.404297 0.402344 4.70236 0.402344 10.0043C0.402344 15.3062 4.70041 19.6043 10.0023 19.6043Z"
              fill="#1769FF"/>
        <path d="M7.18405 5.6543C7.598 5.6543 7.97586 5.69116 8.31762 5.76412C8.65938 5.83708 8.95122 5.95689 9.19468 6.12355C9.43813 6.2902 9.62706 6.51139 9.76146 6.78787C9.89586 7.06435 9.96268 7.40534 9.96268 7.81161C9.96268 8.25014 9.86284 8.61571 9.66392 8.90831C9.46501 9.20092 9.1701 9.44054 8.78072 9.62716C9.31679 9.78153 9.71692 10.0519 9.98111 10.4374C10.2453 10.8229 10.3774 11.2883 10.3774 11.8329C10.3774 12.2714 10.2921 12.6515 10.1217 12.9726C9.95116 13.2936 9.72152 13.5555 9.43276 13.7582C9.14399 13.9618 8.81528 14.1115 8.44588 14.2091C8.07416 14.3066 7.69093 14.3557 7.30693 14.355H3.08984V5.6543H7.18405ZM6.9406 9.17558C7.28159 9.17558 7.56191 9.09417 7.78156 8.93212C8.0012 8.76931 8.11103 8.50588 8.11026 8.14031C8.11026 7.93756 8.0734 7.77091 8.00044 7.64111C7.92748 7.51132 7.82994 7.40918 7.70783 7.33622C7.58572 7.26326 7.44594 7.21257 7.28773 7.18415C7.12492 7.15574 6.9598 7.14115 6.79391 7.14191H5.0037V9.17711L6.9406 9.17558ZM7.05042 12.8674C7.2309 12.8681 7.41061 12.8497 7.58648 12.8128C7.75698 12.776 7.90751 12.7153 8.0373 12.63C8.16709 12.5448 8.27077 12.4288 8.34834 12.2829C8.42514 12.137 8.46431 11.9496 8.46431 11.7223C8.46431 11.2761 8.33836 10.9566 8.08645 10.7661C7.83455 10.5749 7.50124 10.4796 7.08728 10.4796H5.0037V12.8681L7.05042 12.8674ZM12.7843 12.6846C13.0439 12.9365 13.4179 13.0624 13.9056 13.0624C14.255 13.0624 14.5553 12.9749 14.8072 12.8005C15.0591 12.6262 15.2135 12.4411 15.2703 12.246H16.7933C16.5498 13.0018 16.1758 13.5417 15.672 13.8665C15.1682 14.1914 14.5592 14.3542 13.8441 14.3542C13.3488 14.3542 12.9018 14.2751 12.504 14.1169C12.1062 13.9587 11.769 13.7329 11.4925 13.4403C11.2161 13.1477 11.0025 12.799 10.8528 12.3927C10.703 11.9865 10.6278 11.5395 10.6278 11.0526C10.6278 10.5818 10.7046 10.1433 10.8589 9.73699C11.0133 9.33071 11.2329 8.97974 11.5171 8.68329C11.8013 8.38684 12.1407 8.15337 12.5347 7.98287C12.9287 7.81238 13.3657 7.72713 13.8449 7.72713C14.381 7.72713 14.8479 7.83081 15.2465 8.03817C15.6443 8.24553 15.9715 8.52355 16.2273 8.87299C16.483 9.22243 16.6681 9.62025 16.7817 10.0672C16.8954 10.5142 16.9361 10.9811 16.9039 11.4688H12.3588C12.3826 12.0272 12.5247 12.4334 12.7843 12.6846ZM14.7404 9.37065C14.533 9.14332 14.2182 9.02966 13.7958 9.02966C13.5193 9.02966 13.2897 9.07651 13.1076 9.16943C12.9249 9.26313 12.7789 9.37833 12.6691 9.51657C12.5593 9.65481 12.4825 9.80073 12.4379 9.9551C12.3934 10.1095 12.3665 10.2477 12.3588 10.3691H15.1736C15.0914 9.93129 14.947 9.59798 14.7404 9.37065ZM12.0624 6.0959H15.5791V7.07126H12.0624V6.0959Z"
              fill="white"/>
    </g>
    <defs>
        <clipPath id="clip0_588_1153">
            <rect width="19.2" height="19.2" fill="white" transform="translate(0.402344 0.404297)"/>
        </clipPath>
    </defs>
</svg>
