<svg width="20" height="20" viewBox="0 0 20 20" fill="none" xmlns="http://www.w3.org/2000/svg">
    <path d="M10.0022 19.3041C15.1384 19.3041 19.3022 15.1404 19.3022 10.0041C19.3022 4.86786 15.1384 0.704102 10.0022 0.704102C4.8659 0.704102 0.702148 4.86786 0.702148 10.0041C0.702148 15.1404 4.8659 19.3041 10.0022 19.3041Z"
          fill="#EA4C89"/>
    <path fill-rule="evenodd" clip-rule="evenodd"
          d="M10.0023 0.404297C4.70256 0.404297 0.402344 4.70452 0.402344 10.0043C0.402344 15.3041 4.70256 19.6043 10.0023 19.6043C15.2917 19.6043 19.6023 15.3041 19.6023 10.0043C19.6023 4.70452 15.2917 0.404297 10.0023 0.404297ZM16.3433 4.82946C17.4887 6.22469 18.1759 8.00516 18.1967 9.9314C17.926 9.87938 15.2188 9.3275 12.4908 9.67112C12.4284 9.53576 12.3763 9.38996 12.3138 9.24422C12.1472 8.84858 11.9598 8.4425 11.7724 8.05724C14.7919 6.82862 16.1663 5.05853 16.3433 4.82946ZM10.0023 1.82035C12.0848 1.82035 13.9902 2.60126 15.4375 3.88196C15.2917 4.0902 14.0526 5.74573 11.1372 6.839C9.79409 4.37132 8.30519 2.35137 8.07611 2.039C8.69039 1.89323 9.33599 1.82035 10.0023 1.82035ZM6.51431 2.59085C6.73294 2.88239 8.19065 4.91276 9.55463 7.32836C5.72295 8.34878 2.33901 8.32796 1.97458 8.32796C2.5056 5.78738 4.2236 3.67371 6.51431 2.59085ZM1.79757 10.0147C1.79757 9.9314 1.79757 9.84812 1.79757 9.76484C2.15158 9.77522 6.12903 9.8273 10.221 8.59868C10.4605 9.05678 10.6791 9.52532 10.8874 9.99386C10.7832 10.0251 10.6687 10.0564 10.5646 10.0876C6.33727 11.4516 4.08825 15.1791 3.90082 15.4915C2.5993 14.0442 1.79757 12.118 1.79757 10.0147ZM10.0023 18.2091C8.10731 18.2091 6.3581 17.5635 4.97328 16.4806C5.11905 16.1787 6.78496 12.9718 11.408 11.3579C11.4288 11.3475 11.4392 11.3475 11.46 11.3371C12.6158 14.3253 13.0844 16.8346 13.2093 17.5531C12.2201 17.98 11.1372 18.2091 10.0023 18.2091ZM14.5733 16.8034C14.49 16.3036 14.0526 13.9089 12.9802 10.9622C15.552 10.5561 17.801 11.2225 18.0822 11.3163C17.7282 13.5965 16.4162 15.5644 14.5733 16.8034Z"
          fill="#C32361"/>
</svg>
