<svg width="20" height="20" viewBox="0 0 20 20" fill="none" xmlns="http://www.w3.org/2000/svg">
    <g clip-path="url(#clip0_588_1161)">
        <path d="M10.0004 2.12914C12.5654 2.12914 12.8691 2.14039 13.8779 2.18539C14.8154 2.22664 15.3216 2.38414 15.6591 2.51539C16.1054 2.68789 16.4279 2.89789 16.7616 3.23164C17.0991 3.56914 17.3054 3.88789 17.4779 4.33414C17.6091 4.67164 17.7666 5.18164 17.8079 6.11539C17.8529 7.12789 17.8641 7.43164 17.8641 9.99289C17.8641 12.5579 17.8529 12.8616 17.8079 13.8704C17.7666 14.8079 17.6091 15.3141 17.4779 15.6516C17.3054 16.0979 17.0954 16.4204 16.7616 16.7541C16.4241 17.0916 16.1054 17.2979 15.6591 17.4704C15.3216 17.6016 14.8116 17.7591 13.8779 17.8004C12.8654 17.8454 12.5616 17.8566 10.0004 17.8566C7.43539 17.8566 7.13164 17.8454 6.12289 17.8004C5.18539 17.7591 4.67914 17.6016 4.34164 17.4704C3.89539 17.2979 3.57289 17.0879 3.23914 16.7541C2.90164 16.4166 2.69539 16.0979 2.52289 15.6516C2.39164 15.3141 2.23414 14.8041 2.19289 13.8704C2.14789 12.8579 2.13664 12.5541 2.13664 9.99289C2.13664 7.42789 2.14789 7.12414 2.19289 6.11539C2.23414 5.17789 2.39164 4.67164 2.52289 4.33414C2.69539 3.88789 2.90539 3.56539 3.23914 3.23164C3.57664 2.89414 3.89539 2.68789 4.34164 2.51539C4.67914 2.38414 5.18914 2.22664 6.12289 2.18539C7.13164 2.14039 7.43539 2.12914 10.0004 2.12914ZM10.0004 0.400391C7.39414 0.400391 7.06789 0.411641 6.04414 0.456641C5.02414 0.501641 4.32289 0.666641 3.71539 0.902891C3.08164 1.15039 2.54539 1.47664 2.01289 2.01289C1.47664 2.54539 1.15039 3.08164 0.902891 3.71164C0.666641 4.32289 0.501641 5.02039 0.456641 6.04039C0.411641 7.06789 0.400391 7.39414 0.400391 10.0004C0.400391 12.6066 0.411641 12.9329 0.456641 13.9566C0.501641 14.9766 0.666641 15.6779 0.902891 16.2854C1.15039 16.9191 1.47664 17.4554 2.01289 17.9879C2.54539 18.5204 3.08164 18.8504 3.71164 19.0941C4.32289 19.3304 5.02039 19.4954 6.04039 19.5404C7.06414 19.5854 7.39039 19.5966 9.99664 19.5966C12.6029 19.5966 12.9291 19.5854 13.9529 19.5404C14.9729 19.4954 15.6741 19.3304 16.2816 19.0941C16.9116 18.8504 17.4479 18.5204 17.9804 17.9879C18.5129 17.4554 18.8429 16.9191 19.0866 16.2891C19.3229 15.6779 19.4879 14.9804 19.5329 13.9604C19.5779 12.9366 19.5891 12.6104 19.5891 10.0041C19.5891 7.39789 19.5779 7.07164 19.5329 6.04789C19.4879 5.02789 19.3229 4.32664 19.0866 3.71914C18.8504 3.08164 18.5241 2.54539 17.9879 2.01289C17.4554 1.48039 16.9191 1.15039 16.2891 0.906641C15.6779 0.670391 14.9804 0.505391 13.9604 0.460391C12.9329 0.411641 12.6066 0.400391 10.0004 0.400391Z"
              fill="#000100"/>
        <path d="M9.99961 5.06934C7.27711 5.06934 5.06836 7.27809 5.06836 10.0006C5.06836 12.7231 7.27711 14.9318 9.99961 14.9318C12.7221 14.9318 14.9309 12.7231 14.9309 10.0006C14.9309 7.27809 12.7221 5.06934 9.99961 5.06934ZM9.99961 13.1993C8.23336 13.1993 6.80086 11.7668 6.80086 10.0006C6.80086 8.23434 8.23336 6.80184 9.99961 6.80184C11.7659 6.80184 13.1984 8.23434 13.1984 10.0006C13.1984 11.7668 11.7659 13.1993 9.99961 13.1993Z"
              fill="#000100"/>
        <path d="M16.2771 4.87391C16.2771 5.51141 15.7596 6.02516 15.1259 6.02516C14.4884 6.02516 13.9746 5.50766 13.9746 4.87391C13.9746 4.23641 14.4921 3.72266 15.1259 3.72266C15.7596 3.72266 16.2771 4.24016 16.2771 4.87391Z"
              fill="#000100"/>
    </g>
    <defs>
        <clipPath id="clip0_588_1161">
            <rect width="19.2" height="19.2" fill="white" transform="translate(0.400391 0.400391)"/>
        </clipPath>
    </defs>
</svg>
