<svg width="20" height="20" viewBox="0 0 20 20" fill="none" xmlns="http://www.w3.org/2000/svg">
    <path d="M14.141 7.33077C15.3757 8.21651 16.8882 8.73766 18.5218 8.73766V5.58289C18.2127 5.58295 17.9043 5.5506 17.6018 5.48629V7.96954C15.9683 7.96954 14.456 7.44839 13.221 6.56272V13.0007C13.221 16.2213 10.6194 18.8319 7.41047 18.8319C6.21313 18.8319 5.10025 18.4687 4.17578 17.8456C5.23091 18.9283 6.70237 19.6 8.33028 19.6C11.5394 19.6 14.1411 16.9894 14.1411 13.7686V7.33077H14.141ZM15.2759 4.14799C14.6449 3.45618 14.2306 2.56214 14.141 1.57374V1.16797H13.2691C13.4886 2.42423 14.2371 3.4975 15.2759 4.14799ZM6.20545 15.3742C5.85291 14.9104 5.6624 14.3429 5.66325 13.7594C5.66325 12.2864 6.85318 11.0921 8.32122 11.0921C8.59482 11.092 8.86677 11.1341 9.1275 11.2171V7.99182C8.8228 7.94991 8.51528 7.93212 8.20789 7.93864V10.449C7.94696 10.366 7.67488 10.3238 7.40122 10.3241C5.93317 10.3241 4.74331 11.5183 4.74331 12.9915C4.74331 14.0331 5.33808 14.9349 6.20545 15.3742Z"
          fill="#FF004F"/>
    <path d="M13.2208 6.56266C14.4558 7.44833 15.9681 7.96948 17.6016 7.96948V5.48622C16.6898 5.29131 15.8826 4.81312 15.2757 4.14799C14.2369 3.49743 13.4884 2.42416 13.2689 1.16797H10.9789V13.7685C10.9737 15.2374 9.7858 16.4269 8.32091 16.4269C7.45767 16.4269 6.69076 16.0139 6.20507 15.3742C5.33776 14.9349 4.74299 14.033 4.74299 12.9915C4.74299 11.5185 5.93285 10.3242 7.4009 10.3242C7.68217 10.3242 7.95327 10.3681 8.20757 10.4491V7.93871C5.05498 8.00407 2.51953 10.5892 2.51953 13.7686C2.51953 15.3557 3.15092 16.7944 4.17566 17.8457C5.10013 18.4687 6.21301 18.832 7.41035 18.832C10.6194 18.832 13.2208 16.2212 13.2208 13.0007V6.56266H13.2208Z"
          fill="black"/>
    <path d="M17.6016 5.48663V4.81518C16.7794 4.81643 15.9733 4.58534 15.2757 4.14834C15.8933 4.82684 16.7064 5.29468 17.6016 5.48663ZM13.269 1.16838C13.248 1.04832 13.232 0.927471 13.2208 0.806162V0.400391H10.0588V13.001C10.0538 14.4698 8.86595 15.6592 7.40092 15.6592C6.97081 15.6592 6.56472 15.5568 6.20509 15.3747C6.69078 16.0143 7.45768 16.4272 8.32092 16.4272C9.78569 16.4272 10.9738 15.2379 10.9789 13.769V1.16838H13.269ZM8.20772 7.93912V7.2243C7.94351 7.18806 7.67714 7.16988 7.41043 7.17001C4.20114 7.16994 1.59961 9.7807 1.59961 13.001C1.59961 15.02 2.62206 16.7993 4.17575 17.846C3.151 16.7948 2.51962 15.3559 2.51962 13.7689C2.51962 10.5896 5.055 8.00448 8.20772 7.93912Z"
          fill="#00F2EA"/>
</svg>
